<svg width="14" height="9" viewBox="0 0 14 9" fill="none" xmlns="http://www.w3.org/2000/svg">
<path d="M6.33594 8.25C6.49219 8.44531 6.72656 8.52344 7 8.52344C7.23438 8.52344 7.46875 8.44531 7.66406 8.25L12.9766 2.9375C13.1328 2.78125 13.25 2.54688 13.25 2.27344C13.25 2.03906 13.1328 1.80469 12.9766 1.60938L12.0781 0.75C11.8828 0.59375 11.6484 0.476562 11.4141 0.476562C11.1406 0.476562 10.9062 0.59375 10.75 0.75L7 4.5L3.25 0.75C3.05469 0.59375 2.82031 0.476562 2.58594 0.476562C2.3125 0.476562 2.07812 0.59375 1.92188 0.75L1.02344 1.60938C0.828125 1.80469 0.75 2.03906 0.75 2.27344C0.75 2.54688 0.828125 2.78125 1.02344 2.9375L6.33594 8.25Z" fill="#333333"/>
</svg>
